<?xml version="1.0" standalone="no"?>
<!DOCTYPE svg PUBLIC "-//W3C//DTD SVG 20010904//EN"
 "http://www.w3.org/TR/2001/REC-SVG-20010904/DTD/svg10.dtd">
<svg version="1.0" xmlns="http://www.w3.org/2000/svg"
 width="700.000000pt" height="700.000000pt" viewBox="0 0 700.000000 700.000000"
 preserveAspectRatio="xMidYMid meet">
<metadata>
Created by potrace 1.11, written by Peter Selinger 2001-2013
</metadata>
<g transform="translate(0.000000,700.000000) scale(0.100000,-0.100000)"
fill="#000000" stroke="none">
<path d="M4421 6950 c-30 -11 -73 -32 -95 -47 -23 -14 -271 -257 -552 -538
-475 -476 -514 -517 -544 -581 -28 -59 -32 -81 -33 -149 -2 -159 20 -199 224
-405 l161 -162 -69 -68 -68 -68 -300 298 c-188 187 -316 306 -343 319 -96 49
-203 57 -306 25 -63 -20 -114 -52 -169 -109 -25 -25 -47 -45 -50 -45 -3 0 -38
98 -78 218 -81 246 -104 296 -155 347 -41 41 -71 56 -131 62 -67 8 -133 -30
-236 -132 l-89 -88 -39 13 c-83 28 -159 10 -213 -50 -53 -59 -66 -137 -35
-211 10 -26 6 -32 -76 -116 -99 -99 -135 -163 -135 -235 0 -26 5 -50 10 -53 6
-4 8 -10 5 -14 -9 -16 75 -99 127 -125 29 -14 152 -59 273 -99 l219 -73 -109
-110 c-122 -122 -153 -160 -178 -219 -47 -112 -42 -223 16 -340 11 -24 139
-161 317 -340 l298 -300 -68 -68 -67 -67 -155 153 c-86 84 -175 165 -199 179
-134 78 -309 70 -427 -20 -26 -19 -273 -262 -549 -538 -452 -453 -504 -509
-532 -567 -56 -117 -51 -261 11 -367 26 -44 1018 -1041 1076 -1082 132 -92
319 -93 443 -3 60 44 1039 1028 1069 1075 46 73 63 139 58 230 -7 128 -38 178
-223 366 -85 86 -155 159 -155 163 0 4 29 36 66 71 l65 65 222 -225 c174 -175
236 -232 282 -256 224 -117 496 -117 754 2 41 19 75 34 77 34 2 0 -3 -17 -10
-38 -13 -37 -18 -61 -33 -162 -16 -109 -5 -235 35 -392 14 -55 65 -158 115
-235 49 -75 123 -163 138 -163 6 0 131 122 280 271 l270 271 147 -88 c81 -49
155 -93 164 -99 175 -102 179 -105 168 -126 -14 -25 -15 -106 -2 -140 39 -99
162 -152 257 -110 110 50 150 174 90 276 -37 65 -93 94 -169 91 -34 -1 -67 -4
-75 -7 -10 -3 -60 70 -157 231 -79 129 -143 238 -143 242 -1 4 121 129 269
277 149 148 270 273 270 277 0 24 -172 150 -275 202 -65 32 -178 70 -235 78
-19 3 -42 7 -50 10 -20 7 -197 6 -245 -1 -66 -10 -156 -35 -219 -61 -33 -13
-61 -24 -62 -24 -2 0 5 24 16 54 59 174 70 354 30 516 -41 170 -48 180 -304
438 l-230 232 64 65 c35 36 68 65 73 65 5 0 68 -60 141 -133 72 -73 151 -149
176 -169 128 -104 335 -103 470 3 66 52 1033 1027 1057 1065 33 55 54 133 54
201 -1 169 12 152 -580 746 -284 285 -536 531 -561 547 -95 60 -228 76 -329
40z"/>
<path d="M5971 2514 c-41 -17 -88 -64 -102 -101 -5 -14 -12 -62 -14 -107 -22
-365 -187 -665 -468 -849 -173 -113 -334 -163 -585 -182 -34 -2 -74 -11 -90
-19 -67 -35 -112 -119 -105 -196 5 -53 51 -120 102 -147 36 -19 60 -23 125
-23 71 0 109 4 241 26 179 29 460 153 599 264 286 228 461 505 537 851 34 156
42 305 19 373 -33 101 -158 154 -259 110z"/>
<path d="M6701 2438 c-25 -13 -59 -40 -75 -61 -30 -38 -31 -41 -27 -130 9
-215 5 -362 -13 -447 -58 -279 -209 -547 -438 -779 -233 -235 -457 -373 -720
-442 -114 -30 -332 -35 -434 -10 -86 21 -130 19 -180 -10 -85 -47 -120 -141
-87 -233 25 -73 81 -114 183 -135 30 -6 66 -14 80 -17 53 -12 308 -12 391 1
326 49 647 207 917 450 101 91 213 209 280 295 37 47 70 90 75 95 25 30 105
162 146 240 133 253 192 482 196 760 3 135 -1 182 -20 280 -26 129 -163 201
-274 143z"/>
</g>
</svg>
